# Blender v3.4.1 OBJ File: 'untitled.blend'
# www.blender.org
mtllib window.mtl
o Cube
v -3.293075 0.124279 1.318472
v -3.293075 1.413404 1.318472
v -3.293075 1.413404 1.354508
v -3.293075 0.124279 1.354508
v -3.622460 0.124279 1.318472
v -3.622460 1.413404 1.318472
v -3.622460 0.124279 1.354508
v -3.622460 1.413404 1.354508
v -3.293075 0.124279 2.290480
v -3.293075 1.413404 2.290480
v -3.293075 1.413404 2.326516
v -3.293075 0.124279 2.326516
v -3.622460 0.124279 2.290480
v -3.622460 1.413404 2.290480
v -3.622460 0.124279 2.326516
v -3.622460 1.413404 2.326516
v -3.293075 1.367059 2.325654
v -3.293075 1.367059 1.318774
v -3.293075 1.413196 1.318774
v -3.293075 1.413196 2.325654
v -3.622460 1.367059 2.325654
v -3.622460 1.367059 1.318774
v -3.622460 1.413196 2.325654
v -3.622460 1.413196 1.318774
v -3.293075 0.124122 2.325654
v -3.293075 0.124122 1.318774
v -3.293075 0.170260 1.318774
v -3.293075 0.170260 2.325654
v -3.622460 0.124122 2.325654
v -3.622460 0.124122 1.318774
v -3.622460 0.170260 2.325654
v -3.622460 0.170260 1.318774
v -3.293075 0.925570 2.325654
v -3.293075 0.925570 1.318774
v -3.293075 0.971708 1.318774
v -3.293075 0.971708 2.325654
v -3.622460 0.925570 2.325654
v -3.622460 0.925570 1.318774
v -3.622460 0.971708 2.325654
v -3.622460 0.971708 1.318774
v -3.293075 0.124279 1.798551
v -3.293075 1.413404 1.798551
v -3.293075 1.413404 1.834588
v -3.293075 0.124279 1.834588
v -3.622460 0.124279 1.798551
v -3.622460 1.413404 1.798551
v -3.622460 0.124279 1.834588
v -3.622460 1.413404 1.834588
vt 1.000000 0.000000
vt 1.000000 1.000000
vt 0.000000 1.000000
vt 0.000000 0.000000
vt 1.000000 0.000000
vt 1.000000 1.000000
vt 0.000000 1.000000
vt 0.000000 0.000000
vt 1.000000 0.000000
vt 1.000000 1.000000
vt 0.000000 1.000000
vt 0.000000 0.000000
vt 1.000000 0.000000
vt 1.000000 1.000000
vt 0.000000 1.000000
vt 0.000000 0.000000
vt 1.000000 0.000000
vt 0.000000 0.000000
vt 1.000000 1.000000
vt 0.000000 1.000000
vt 1.000000 0.000000
vt 1.000000 1.000000
vt 0.000000 1.000000
vt 0.000000 0.000000
vt 1.000000 0.000000
vt 1.000000 1.000000
vt 0.000000 1.000000
vt 0.000000 0.000000
vt 1.000000 0.000000
vt 1.000000 1.000000
vt 0.000000 1.000000
vt 0.000000 0.000000
vt 1.000000 0.000000
vt 1.000000 1.000000
vt 0.000000 1.000000
vt 0.000000 0.000000
vt 1.000000 0.000000
vt 0.000000 0.000000
vt 1.000000 1.000000
vt 0.000000 1.000000
vt 1.000000 0.000000
vt 1.000000 1.000000
vt 0.000000 1.000000
vt 0.000000 0.000000
vt 1.000000 0.000000
vt 1.000000 1.000000
vt 0.000000 1.000000
vt 0.000000 0.000000
vt 1.000000 0.000000
vt 1.000000 1.000000
vt 0.000000 1.000000
vt 0.000000 0.000000
vt 1.000000 0.000000
vt 1.000000 1.000000
vt 0.000000 1.000000
vt 0.000000 0.000000
vt 1.000000 0.000000
vt 0.000000 0.000000
vt 1.000000 1.000000
vt 0.000000 1.000000
vt 1.000000 0.000000
vt 1.000000 1.000000
vt 0.000000 1.000000
vt 0.000000 0.000000
vt 1.000000 0.000000
vt 1.000000 1.000000
vt 0.000000 1.000000
vt 0.000000 0.000000
vt 1.000000 0.000000
vt 1.000000 1.000000
vt 0.000000 1.000000
vt 0.000000 0.000000
vt 1.000000 0.000000
vt 1.000000 1.000000
vt 0.000000 1.000000
vt 0.000000 0.000000
vt 1.000000 0.000000
vt 0.000000 0.000000
vt 1.000000 1.000000
vt 0.000000 1.000000
vt 1.000000 0.000000
vt 1.000000 1.000000
vt 0.000000 1.000000
vt 0.000000 0.000000
vt 1.000000 0.000000
vt 1.000000 1.000000
vt 0.000000 1.000000
vt 0.000000 0.000000
vt 1.000000 0.000000
vt 1.000000 1.000000
vt 0.000000 1.000000
vt 0.000000 0.000000
vt 1.000000 0.000000
vt 1.000000 1.000000
vt 0.000000 1.000000
vt 0.000000 0.000000
vt 1.000000 0.000000
vt 0.000000 0.000000
vt 1.000000 1.000000
vt 0.000000 1.000000
vt 1.000000 0.000000
vt 1.000000 1.000000
vt 0.000000 1.000000
vt 0.000000 0.000000
vt 1.000000 0.000000
vt 1.000000 1.000000
vt 0.000000 1.000000
vt 0.000000 0.000000
vt 1.000000 0.000000
vt 1.000000 1.000000
vt 0.000000 1.000000
vt 0.000000 0.000000
vt 1.000000 0.000000
vt 1.000000 1.000000
vt 0.000000 1.000000
vt 0.000000 0.000000
vt 1.000000 0.000000
vt 0.000000 0.000000
vt 1.000000 1.000000
vt 0.000000 1.000000
vn 1.0000 0.0000 0.0000
vn 0.0000 0.0000 -1.0000
vn -1.0000 0.0000 0.0000
vn 0.0000 0.0000 1.0000
vn 0.0000 1.0000 0.0000
vn -0.0000 -1.0000 0.0000
usemtl Mat.002
s 1
f 1/1/1 2/2/1 3/3/1 4/4/1
f 5/5/2 6/6/2 2/7/2 1/8/2
f 7/9/3 8/10/3 6/11/3 5/12/3
f 4/13/4 3/14/4 8/15/4 7/16/4
f 2/17/5 6/6/5 8/15/5 3/18/5
f 5/5/6 1/19/6 4/20/6 7/16/6
f 9/21/1 10/22/1 11/23/1 12/24/1
f 13/25/2 14/26/2 10/27/2 9/28/2
f 15/29/3 16/30/3 14/31/3 13/32/3
f 12/33/4 11/34/4 16/35/4 15/36/4
f 10/37/5 14/26/5 16/35/5 11/38/5
f 13/25/6 9/39/6 12/40/6 15/36/6
f 17/41/1 18/42/1 19/43/1 20/44/1
f 21/45/6 22/46/6 18/47/6 17/48/6
f 23/49/3 24/50/3 22/51/3 21/52/3
f 20/53/5 19/54/5 24/55/5 23/56/5
f 18/57/2 22/46/2 24/55/2 19/58/2
f 21/45/4 17/59/4 20/60/4 23/56/4
f 25/61/1 26/62/1 27/63/1 28/64/1
f 29/65/6 30/66/6 26/67/6 25/68/6
f 31/69/3 32/70/3 30/71/3 29/72/3
f 28/73/5 27/74/5 32/75/5 31/76/5
f 26/77/2 30/66/2 32/75/2 27/78/2
f 29/65/4 25/79/4 28/80/4 31/76/4
f 33/81/1 34/82/1 35/83/1 36/84/1
f 37/85/6 38/86/6 34/87/6 33/88/6
f 39/89/3 40/90/3 38/91/3 37/92/3
f 36/93/5 35/94/5 40/95/5 39/96/5
f 34/97/2 38/86/2 40/95/2 35/98/2
f 37/85/4 33/99/4 36/100/4 39/96/4
f 41/101/1 42/102/1 43/103/1 44/104/1
f 45/105/2 46/106/2 42/107/2 41/108/2
f 47/109/3 48/110/3 46/111/3 45/112/3
f 44/113/4 43/114/4 48/115/4 47/116/4
f 42/117/5 46/106/5 48/115/5 43/118/5
f 45/105/6 41/119/6 44/120/6 47/116/6
