# Blender v3.4.1 OBJ File: 'untitled.blend'
# www.blender.org
mtllib chair.mtl
o Bein_2
v -1.008502 -1.029364 -1.337195
v -1.008502 -0.029364 -1.337195
v -1.108501 -0.029364 -1.337195
v -1.108501 -1.029364 -1.337195
v -1.008502 -1.029364 -1.437195
v -1.008502 -0.029364 -1.437195
v -1.108501 -1.029364 -1.437195
v -1.108501 -0.029364 -1.437195
v -0.008502 -0.279364 -1.336283
v -0.008502 -0.179364 -1.336283
v -1.008502 -0.179364 -1.336283
v -1.008502 -0.279364 -1.336283
v -0.008502 -0.279364 -1.436283
v -0.008502 -0.179364 -1.436283
v -1.008502 -0.279364 -1.436283
v -1.008502 -0.179364 -1.436283
v -0.008502 -0.279364 0.456946
v -0.008502 -0.179364 0.456946
v -1.008502 -0.179364 0.456946
v -1.008502 -0.279364 0.456946
v -0.008502 -0.279364 0.356946
v -0.008502 -0.179364 0.356946
v -1.008502 -0.279364 0.356946
v -1.008502 -0.179364 0.356946
v -0.458502 -0.279364 0.412805
v -0.458502 -0.179364 0.412805
v -0.558502 -0.179364 0.412805
v -0.558502 -0.279364 0.412805
v -0.458502 -0.279364 -1.387195
v -0.458502 -0.179364 -1.387195
v -0.558502 -0.279364 -1.387195
v -0.558502 -0.179364 -1.387195
v 0.191498 -0.054188 0.612805
v 0.191498 -0.004188 0.612805
v -1.208502 -0.004188 0.612805
v -1.208502 -0.054188 0.612805
v -1.208502 -0.054188 -1.587195
v -1.208502 -0.004188 -1.587195
v 0.191498 -0.004188 -1.587195
v 0.191498 -0.054188 -1.587195
v -1.008502 -1.029364 0.462805
v -1.008502 -0.029364 0.462805
v -1.108501 -0.029364 0.462805
v -1.108501 -1.029364 0.462805
v -1.008502 -1.029364 0.362805
v -1.008502 -0.029364 0.362805
v -1.108501 -1.029364 0.362805
v -1.108501 -0.029364 0.362805
v 0.091498 -1.029364 0.462805
v 0.091498 -0.029364 0.462805
v -0.008502 -0.029364 0.462805
v -0.008502 -1.029364 0.462805
v 0.091498 -1.029364 0.362805
v 0.091498 -0.029364 0.362805
v -0.008502 -1.029364 0.362805
v -0.008502 -0.029364 0.362805
v 0.091498 -1.029364 -1.337195
v 0.091498 -0.029364 -1.337195
v -0.008502 -0.029364 -1.337195
v -0.008502 -1.029364 -1.337195
v 0.091498 -1.029364 -1.437195
v 0.091498 -0.029364 -1.437195
v -0.008502 -1.029364 -1.437195
v -0.008502 -0.029364 -1.437195
vn 0.0000 -0.0000 1.0000
vn 1.0000 -0.0000 0.0000
vn 0.0000 0.0000 -1.0000
vn -1.0000 0.0000 0.0000
vn 0.0000 1.0000 0.0000
vn 0.0000 -1.0000 0.0000
usemtl Mat
s 1
f 1//1 2//1 3//1 4//1
f 5//2 6//2 2//2 1//2
f 7//3 8//3 6//3 5//3
f 4//4 3//4 8//4 7//4
f 2//5 6//5 8//5 3//5
f 5//6 1//6 4//6 7//6
f 26//5 30//5 32//5 27//5
f 29//6 25//6 28//6 31//6
f 33//1 34//1 35//1 36//1
f 37//3 38//3 39//3 40//3
f 34//5 39//5 38//5 35//5
f 40//6 33//6 36//6 37//6
f 41//1 42//1 43//1 44//1
f 45//2 46//2 42//2 41//2
f 47//3 48//3 46//3 45//3
f 44//4 43//4 48//4 47//4
f 42//5 46//5 48//5 43//5
f 45//6 41//6 44//6 47//6
f 49//1 50//1 51//1 52//1
f 53//2 54//2 50//2 49//2
f 55//3 56//3 54//3 53//3
f 52//4 51//4 56//4 55//4
f 50//5 54//5 56//5 51//5
f 53//6 49//6 52//6 55//6
f 57//1 58//1 59//1 60//1
f 61//2 62//2 58//2 57//2
f 63//3 64//3 62//3 61//3
f 60//4 59//4 64//4 63//4
f 58//5 62//5 64//5 59//5
f 61//6 57//6 60//6 63//6
usemtl Mat.1
f 9//1 10//1 11//1 12//1
f 13//2 14//2 10//2 9//2
f 15//3 16//3 14//3 13//3
f 12//4 11//4 16//4 15//4
f 10//5 14//5 16//5 11//5
f 13//6 9//6 12//6 15//6
f 17//1 18//1 19//1 20//1
f 21//2 22//2 18//2 17//2
f 23//3 24//3 22//3 21//3
f 20//4 19//4 24//4 23//4
f 18//5 22//5 24//5 19//5
f 21//6 17//6 20//6 23//6
f 25//1 26//1 27//1 28//1
f 29//2 30//2 26//2 25//2
f 31//3 32//3 30//3 29//3
f 28//4 27//4 32//4 31//4
f 40//2 39//2 34//2 33//2
f 36//4 35//4 38//4 37//4
